<?xml version="1.0" encoding="UTF-8" standalone="no"?>
<svg width="44px" height="44px" viewBox="0 0 44 44" version="1.1" xmlns="http://www.w3.org/2000/svg" xmlns:xlink="http://www.w3.org/1999/xlink">
    <!-- Generator: Sketch 41.2 (35397) - http://www.bohemiancoding.com/sketch -->
    <title>mart</title>
    <desc>Created with Sketch.</desc>
    <defs>
        <path d="M15.2866099,38.3112814 C15.6806044,38.6916502 16.3272463,38.6872396 16.7234812,38.3013785 C16.7234812,38.3013785 31,24.9289375 31,16.4153015 C31,7.90166559 24.2842712,1 16,1 C7.71572875,1 1,7.90166559 1,16.4153015 C1,24.9289375 15.2866099,38.3112814 15.2866099,38.3112814 Z M16,22 C19.3137085,22 22,19.3137085 22,16 C22,12.6862915 19.3137085,10 16,10 C12.6862915,10 10,12.6862915 10,16 C10,19.3137085 12.6862915,22 16,22 Z" id="path-1"></path>
    </defs>
    <g id="Site" stroke="none" stroke-width="1" fill="none" fill-rule="evenodd">
        <g id="mart">
            <g id="Icon" transform="translate(6.000000, 0.000000)">
                <path d="M16,43 C24.2842712,43 31,41.209139 31,39 C31,36.790861 24.2842712,35 16,35 C7.71572875,35 1,36.790861 1,39 C1,41.209139 7.71572875,43 16,43 Z M16,44 C7.08267052,44 0,42.1112879 0,39 C0,35.8887121 7.08267052,34 16,34 C24.9173295,34 32,35.8887121 32,39 C32,42.1112879 24.9173295,44 16,44 Z" id="Combined-Shape" fill="#FFFFFF"></path>
                <path d="M14.5920529,39.0307191 C14.4861057,38.9316335 14.2714991,38.7263474 13.9730694,38.4341038 C13.4782463,37.9495381 12.9275328,37.3958149 12.3348216,36.7817513 C10.6417405,35.0276772 8.94863207,33.1390478 7.36621715,31.1852971 C5.47413244,28.8492084 3.86845975,26.5756847 2.63865945,24.4165399 C0.933991334,21.4236757 0,18.7406661 0,16.4153015 C0,7.35540053 7.15723968,0 16,0 C24.8427603,0 32,7.35540053 32,16.4153015 C32,18.7385794 31.0682563,21.4183581 29.3675508,24.4070034 C28.1380563,26.5675908 26.5319332,28.8426585 24.638873,31.1802906 C23.057552,33.1329737 21.3656154,35.0204564 19.6737057,36.7733823 C19.0814039,37.3870446 18.5310703,37.9403953 18.0365876,38.424627 C17.7383609,38.7166713 17.5238982,38.9218159 17.4211475,39.0178014 C16.6393499,39.7791308 15.3762625,39.787808 14.5920529,39.0307191 Z" id="Combined-Shape" fill="#FFFFFF"></path>
                <g id="Path">
                    <use fill="#FFFFFF" xlink:href="#path-1"></use>
                    <use fill="#6759C0" xlink:href="#path-1"></use>
                </g>
                <path d="M16,23 C12.1340068,23 9,19.8659932 9,16 C9,12.1340068 12.1340068,9 16,9 C19.8659932,9 23,12.1340068 23,16 C23,19.8659932 19.8659932,23 16,23 Z" id="Combined-Shape" fill="#FFFFFF"></path>
                <path d="M16,22 C19.3137085,22 22,19.3137085 22,16 C22,12.6862915 19.3137085,10 16,10 C12.6862915,10 10,12.6862915 10,16 C10,19.3137085 12.6862915,22 16,22 Z" id="Path" fill="#4230B1"></path>
            </g>
        </g>
    </g>
</svg>