<?xml version="1.0" encoding="UTF-8" standalone="no"?>
<svg width="44px" height="44px" viewBox="0 0 44 44" version="1.1" xmlns="http://www.w3.org/2000/svg" xmlns:xlink="http://www.w3.org/1999/xlink">
    <!-- Generator: Sketch 41.2 (35397) - http://www.bohemiancoding.com/sketch -->
    <title>Icon</title>
    <desc>Created with Sketch.</desc>
    <defs>
        <path d="M-1.77635684e-14,7.99873844 C-1.77635684e-14,3.58115718 3.58089638,-3.55271368e-15 7.99873844,-3.55271368e-15 L34.0012616,-3.55271368e-15 C38.4188428,-3.55271368e-15 42,3.58089638 42,7.99873844 L42,34.0012616 C42,38.4188428 38.4191036,42 34.0012616,42 L7.99873844,42 C3.58115718,42 -1.77635684e-14,38.4191036 -1.77635684e-14,34.0012616 L-1.77635684e-14,7.99873844 Z M23.9973917,23 C22.8942627,23 22,22.1029399 22,20.9941413 L22,11.0058587 C22,9.89805351 22.8958578,9 23.9973917,9 L29.0026083,9 C30.1057373,9 31,9.89706013 31,11.0058587 L31,20.9941413 C31,22.1019465 30.1041422,23 29.0026083,23 L23.9973917,23 Z M23.9973917,33 C22.8942627,33 22,32.1132936 22,31.0018986 L22,26.9981014 C22,25.8945804 22.8958578,25 23.9973917,25 L29.0026083,25 C30.1057373,25 31,25.8867064 31,26.9981014 L31,31.0018986 C31,32.1054196 30.1041422,33 29.0026083,33 L23.9973917,33 Z M12.9973917,19 C11.8942627,19 11,19.8970601 11,21.0058587 L11,30.9941413 C11,32.1019465 11.8958578,33 12.9973917,33 L18.0026083,33 C19.1057373,33 20,32.1029399 20,30.9941413 L20,21.0058587 C20,19.8980535 19.1041422,19 18.0026083,19 L12.9973917,19 Z M12.9973917,9 C11.8942627,9 11,9.88670635 11,10.9981014 L11,15.0018986 C11,16.1054196 11.8958578,17 12.9973917,17 L18.0026083,17 C19.1057373,17 20,16.1132936 20,15.0018986 L20,10.9981014 C20,9.89458045 19.1041422,9 18.0026083,9 L12.9973917,9 Z" id="path-1"></path>
        <mask id="mask-2" maskContentUnits="userSpaceOnUse" maskUnits="objectBoundingBox" x="-1" y="-1" width="44" height="44">
            <rect x="-1" y="-1" width="44" height="44" fill="white"></rect>
            <use xlink:href="#path-1" fill="black"></use>
        </mask>
    </defs>
    <g id="Page-1" stroke="none" stroke-width="1" fill="none" fill-rule="evenodd">
        <g id="Artboard">
            <g id="Icon" transform="translate(1.000000, 1.000000)">
                <g id="Combined-Shape">
                    <use fill="#6759C0" fill-rule="evenodd" xlink:href="#path-1"></use>
                    <use stroke="#FFFFFF" mask="url(#mask-2)" stroke-width="2" xlink:href="#path-1"></use>
                </g>
            </g>
        </g>
    </g>
</svg>