<?xml version="1.0" encoding="UTF-8" standalone="no"?>
<svg width="44px" height="44px" viewBox="0 0 44 44" version="1.1" xmlns="http://www.w3.org/2000/svg" xmlns:xlink="http://www.w3.org/1999/xlink">
    <!-- Generator: Sketch 41.2 (35397) - http://www.bohemiancoding.com/sketch -->
    <title>Combined Shape</title>
    <desc>Created with Sketch.</desc>
    <defs>
        <path d="M1,8.99873844 C1,4.58115718 4.58089638,1 8.99873844,1 L35.0012616,1 C39.4188428,1 43,4.58089638 43,8.99873844 L43,35.0012616 C43,39.4188428 39.4191036,43 35.0012616,43 L8.99873844,43 C4.58115718,43 1,39.4191036 1,35.0012616 L1,8.99873844 Z M12.5,17 C14.9852814,17 17,14.9852814 17,12.5 C17,10.0147186 14.9852814,8 12.5,8 C10.0147186,8 8,10.0147186 8,12.5 C8,14.9852814 10.0147186,17 12.5,17 Z M22.5,27 C24.9852814,27 27,24.9852814 27,22.5 C27,20.0147186 24.9852814,18 22.5,18 C20.0147186,18 18,20.0147186 18,22.5 C18,24.9852814 20.0147186,27 22.5,27 Z M32.5,37 C34.9852814,37 37,34.9852814 37,32.5 C37,30.0147186 34.9852814,28 32.5,28 C30.0147186,28 28,30.0147186 28,32.5 C28,34.9852814 30.0147186,37 32.5,37 Z" id="path-1"></path>
        <mask id="mask-2" maskContentUnits="userSpaceOnUse" maskUnits="objectBoundingBox" x="-1" y="-1" width="44" height="44">
            <rect x="0" y="0" width="44" height="44" fill="white"></rect>
            <use xlink:href="#path-1" fill="black"></use>
        </mask>
    </defs>
    <g id="Page-1" stroke="none" stroke-width="1" fill="none" fill-rule="evenodd">
        <g id="Artboard">
            <g id="Combined-Shape">
                <use fill="#6759C0" fill-rule="evenodd" xlink:href="#path-1"></use>
                <use stroke="#FFFFFF" mask="url(#mask-2)" stroke-width="2" xlink:href="#path-1"></use>
            </g>
        </g>
    </g>
</svg>