<?xml version="1.0" encoding="UTF-8" standalone="no"?>
<svg width="44px" height="44px" viewBox="0 0 44 44" version="1.1" xmlns="http://www.w3.org/2000/svg" xmlns:xlink="http://www.w3.org/1999/xlink">
    <!-- Generator: Sketch 41.2 (35397) - http://www.bohemiancoding.com/sketch -->
    <title>yotify</title>
    <desc>Created with Sketch.</desc>
    <defs>
        <path d="M22,43 C33.5979797,43 43,33.5979797 43,22 C43,10.4020203 33.5979797,1 22,1 C10.4020203,1 1,10.4020203 1,22 C1,33.5979797 10.4020203,43 22,43 Z" id="path-1"></path>
    </defs>
    <g id="Site" stroke="none" stroke-width="1" fill="none" fill-rule="evenodd">
        <g id="yotify">
            <g id="Icon">
                <path d="M22,43 C33.5979797,43 43,33.5979797 43,22 C43,10.4020203 33.5979797,1 22,1 C10.4020203,1 1,10.4020203 1,22 C1,33.5979797 10.4020203,43 22,43 Z M22,44 C9.8497355,44 0,34.1502645 0,22 C0,9.8497355 9.8497355,0 22,0 C34.1502645,0 44,9.8497355 44,22 C44,34.1502645 34.1502645,44 22,44 Z" id="Oval-3" fill="#FFFFFF"></path>
                <mask id="mask-2" fill="white">
                    <use xlink:href="#path-1"></use>
                </mask>
                <use id="Path" fill="#6759C0" xlink:href="#path-1"></use>
                <path d="M22.3173173,26.6171875 C27.5987639,26.6171875 32.2266931,18.9793548 35.9169267,19.4609375 C37.8123235,19.7082905 41.9168339,18.109358 43.3173173,19.4609375 C44.7178008,20.812517 43.3173173,25.0722029 43.3173173,22 C43.3173173,10.4020203 33.9152971,1 22.3173173,1 C10.7193376,1 0.0112304688,10.1503906 1.31731732,19.4609375 C4.43603516,19.0092773 4.38659623,19.7743198 5.57024701,19.4609375 C6.57885857,19.1938985 7.69948828,19.667878 8.77067606,20.276031 C10.0915372,21.0259329 11.3372224,21.9798441 12.2050126,22 C15.2625952,22.0710175 15.8514415,26.6171875 22.3173173,26.6171875 Z" id="Path" fill="#4230B1" mask="url(#mask-2)"></path>
                <path d="M22.4864037,56.5022926 L-6.88102513,49.3076731 L-7.11897487,50.2789506 L22.5809791,57.5550342 L61.7376207,40.0946813 L46.4582945,29.6813557 C42.1613467,26.7528551 35.4772654,27.0575331 31.4634614,30.3620389 L28.3949088,32.8883332 C24.7391415,35.8980727 18.7846318,35.900323 15.1364534,32.8935546 L11.9537584,30.2704298 C7.94974104,26.9703848 1.27916194,26.6936662 -2.99248194,29.6515615 L-15.0981208,38.0340984 L-14.5288323,38.8562362 L-2.42319346,30.4736993 C1.48075949,27.7704112 7.65909626,28.02671 11.3177504,31.0421123 L14.5004455,33.6652371 C18.518041,36.976473 25.0055742,36.9740213 29.0305037,33.6603559 L32.0990564,31.1340616 C35.7698252,28.1119716 41.9655252,27.8295553 45.89512,30.5076937 L59.6931033,39.9114391 L22.4864037,56.5022926 Z" id="Path-2" fill="#FFFFFF" mask="url(#mask-2)"></path>
                <path d="M22.3179175,47.5787421 L22.7541324,48.4785847 L60.7444873,30.0620748 L45.6024706,20.431779 C41.2188976,17.6438343 34.5433825,18.1536858 30.6334675,21.5739065 L28.207746,23.6958205 C24.653812,26.8046449 18.872539,26.8062825 15.3241668,23.6999255 L12.7921589,21.4833257 C8.89201696,18.0690182 2.18324742,17.4933478 -2.24466799,20.1938998 L-15.073808,28.0182951 L-14.5531157,28.8720395 L-1.72397572,21.0476443 C2.3309323,18.5745866 8.56213001,19.1092772 12.1334704,22.2357414 L14.6654783,24.4523412 C18.5909789,27.8888484 24.9352631,27.8870514 28.8661465,24.4484883 L31.291868,22.3265743 C34.8678131,19.1984956 41.0567291,18.7258089 45.0658146,21.2755801 L58.6955151,29.9440455 L22.3179175,47.5787421 Z" id="Path-2" fill="#FFFFFF" mask="url(#mask-2)"></path>
            </g>
        </g>
    </g>
</svg>