<?xml version="1.0" encoding="UTF-8"?>
<svg width="44px" height="44px" viewBox="0 0 44 44" version="1.1" xmlns="http://www.w3.org/2000/svg" xmlns:xlink="http://www.w3.org/1999/xlink">
    <!-- Generator: Sketch 50.2 (55047) - http://www.bohemiancoding.com/sketch -->
    <title>jay</title>
    <desc>Created with Sketch.</desc>
    <defs></defs>
    <g id="jay" stroke="none" stroke-width="1" fill="none" fill-rule="evenodd">
        <g id="playlist_icon" fill-rule="nonzero">
            <path d="M0,8.99873844 C0,4.0287874 4.02869666,0 8.99873844,0 L35.0012616,0 C39.9712126,0 44,4.02869666 44,8.99873844 L44,35.0012616 C44,39.9712126 39.9713033,44 35.0012616,44 L8.99873844,44 C4.0287874,44 0,39.9713033 0,35.0012616 L0,8.99873844 Z" id="Combined-Shape" fill="#FFFFFF"></path>
            <path d="M1,8.99873844 L1,35.0012616 C1,39.4191036 4.58115718,43 8.99873844,43 L35.0012616,43 C39.4191036,43 43,39.4188428 43,35.0012616 L43,8.99873844 C43,4.58089638 39.4188428,1 35.0012616,1 L8.99873844,1 C4.58089638,1 1,4.58115718 1,8.99873844 Z" id="Path" fill="#6759C0"></path>
        </g>
        <path d="M31.6786732,11.0434193 C31.8739353,10.8481571 32.1905178,10.8481571 32.38578,11.0434193 C32.5810421,11.2386814 32.5810421,11.5552639 32.38578,11.750526 L11.4200642,32.7162418 C11.224802,32.911504 10.9082195,32.911504 10.7129574,32.7162418 C10.5176952,32.5209797 10.5176952,32.2043972 10.7129574,32.0091351 L31.6786732,11.0434193 Z" id="Path-2" fill="#FFFFFF" fill-rule="nonzero"></path>
    </g>
</svg>