<?xml version="1.0" encoding="UTF-8" standalone="no"?>
<svg width="44px" height="44px" viewBox="0 0 44 44" version="1.1" xmlns="http://www.w3.org/2000/svg" xmlns:xlink="http://www.w3.org/1999/xlink">
    <!-- Generator: Sketch 41.2 (35397) - http://www.bohemiancoding.com/sketch -->
    <title>litmosphere</title>
    <desc>Created with Sketch.</desc>
    <defs></defs>
    <g id="Site" stroke="none" stroke-width="1" fill="none" fill-rule="evenodd">
        <g id="litmosphere">
            <path d="M0,8.99873844 C0,4.0287874 4.02869666,0 8.99873844,0 L35.0012616,0 C39.9712126,0 44,4.02869666 44,8.99873844 L44,35.0012616 C44,39.9712126 39.9713033,44 35.0012616,44 L8.99873844,44 C4.0287874,44 0,39.9713033 0,35.0012616 L0,8.99873844 Z" id="Combined-Shape" fill="#FFFFFF"></path>
            <path d="M1,8.99873844 L1,35.0012616 C1,39.4191036 4.58115718,43 8.99873844,43 L35.0012616,43 C39.4191036,43 43,39.4188428 43,35.0012616 L43,8.99873844 C43,4.58089638 39.4188428,1 35.0012616,1 L8.99873844,1 C4.58089638,1 1,4.58115718 1,8.99873844 Z M30.5,35 C28.0147186,35 26,32.9852814 26,30.5 C26,28.0147186 28.0147186,26 30.5,26 C32.9852814,26 35,28.0147186 35,30.5 C35,32.9852814 32.9852814,35 30.5,35 Z" id="Oval-5" fill="#6759C0"></path>
            <path d="M21.5,26 C19.0147186,26 17,23.9852814 17,21.5 C17,19.0147186 19.0147186,17 21.5,17 C23.9852814,17 26,19.0147186 26,21.5 C26,23.9852814 23.9852814,26 21.5,26 Z" id="Oval-5" fill="#FFFFFF"></path>
            <path d="M12.5,17 C10.0147186,17 8,14.9852814 8,12.5 C8,10.0147186 10.0147186,8 12.5,8 C14.9852814,8 17,10.0147186 17,12.5 C17,14.9852814 14.9852814,17 12.5,17 Z" id="Oval-5" fill="#FFFFFF"></path>
            <path d="M12.5,16 C14.4329966,16 16,14.4329966 16,12.5 C16,10.5670034 14.4329966,9 12.5,9 C10.5670034,9 9,10.5670034 9,12.5 C9,14.4329966 10.5670034,16 12.5,16 Z" id="Path" fill="#4230B1"></path>
            <path d="M21.5,25 C23.4329966,25 25,23.4329966 25,21.5 C25,19.5670034 23.4329966,18 21.5,18 C19.5670034,18 18,19.5670034 18,21.5 C18,23.4329966 19.5670034,25 21.5,25 Z" id="Path" fill="#4230B1"></path>
            <path d="M30.5,34 C32.4329966,34 34,32.4329966 34,30.5 C34,28.5670034 32.4329966,27 30.5,27 C28.5670034,27 27,28.5670034 27,30.5 C27,32.4329966 28.5670034,34 30.5,34 Z" id="Path" fill="#4230B1"></path>
        </g>
    </g>
</svg>
