<?xml version="1.0" encoding="UTF-8" standalone="no"?>
<svg width="44px" height="44px" viewBox="0 0 44 44" version="1.1" xmlns="http://www.w3.org/2000/svg" xmlns:xlink="http://www.w3.org/1999/xlink">
    <!-- Generator: Sketch 41.2 (35397) - http://www.bohemiancoding.com/sketch -->
    <title>Icon</title>
    <desc>Created with Sketch.</desc>
    <defs></defs>
    <g id="Site" stroke="none" stroke-width="1" fill="none" fill-rule="evenodd">
        <g id="playlists">
            <g id="Icon">
                <path d="M0,8.99873844 C0,4.0287874 4.02869666,0 8.99873844,0 L35.0012616,0 C39.9712126,0 44,4.02869666 44,8.99873844 L44,35.0012616 C44,39.9712126 39.9713033,44 35.0012616,44 L8.99873844,44 C4.0287874,44 0,39.9713033 0,35.0012616 L0,8.99873844 Z" id="Combined-Shape" fill="#FFFFFF"></path>
                <path d="M1,8.99873844 L1,35.0012616 C1,39.4191036 4.58115718,43 8.99873844,43 L35.0012616,43 C39.4191036,43 43,39.4188428 43,35.0012616 L43,8.99873844 C43,4.58089638 39.4188428,1 35.0012616,1 L8.99873844,1 C4.58089638,1 1,4.58115718 1,8.99873844 Z" id="Path" fill="#6759C0"></path>
                <g id="Group" transform="translate(11.000000, 9.000000)">
                    <path d="M2.72490155,1.77635684e-15 L7.27509845,0 C8.77903083,0 10,1.34280255 10,2.99810135 L10,6.00189865 C10,7.66339027 8.78201636,9 7.27509845,9 L2.72490155,9 C1.22096917,9 3.22973971e-15,7.65719745 0,6.00189865 L0,2.99810135 C-1.61486985e-15,1.33660973 1.21798364,1.77635684e-15 2.72490155,1.77635684e-15 Z" id="Path" fill="#FFFFFF"></path>
                    <path d="M2.77545929,1 C1.7949002,1 1,1.88670635 1,2.99810135 L1,6.00189865 C1,7.10541955 1.79631805,8 2.77545929,8 L7.22454071,8 C8.2050998,8 9,7.11329365 9,6.00189865 L9,2.99810135 C9,1.89458045 8.20368195,1 7.22454071,1 L2.77545929,1 Z" id="Path" fill="#4230B1"></path>
                    <path d="M2.9973917,11 L7.0026083,11 C8.65780299,11 10,12.3471435 10,14.0058587 L10,22.9941413 C10,24.6540131 8.65923598,26 7.0026083,26 L2.9973917,26 C1.34219701,26 0,24.6528565 0,22.9941413 L0,14.0058587 C0,12.3459869 1.34076402,11 2.9973917,11 Z" id="Path" fill="#FFFFFF"></path>
                    <path d="M2.9973917,12 C1.89426273,12 1,12.8970601 1,14.0058587 L1,22.9941413 C1,24.1019465 1.89585781,25 2.9973917,25 L7.0026083,25 C8.10573727,25 9,24.1029399 9,22.9941413 L9,14.0058587 C9,12.8980535 8.10414219,12 7.0026083,12 L2.9973917,12 Z" id="Path" fill="#4230B1"></path>
                    <path d="M14.9973917,26 C13.339782,26 12,24.6633903 12,23.0018986 L12,19.9981014 C12,18.3428026 13.3430661,17 14.9973917,17 L19.0026083,17 C20.660218,17 22,18.3366097 22,19.9981014 L22,23.0018986 C22,24.6571974 20.6569339,26 19.0026083,26 L14.9973917,26 Z" id="Path" fill="#FFFFFF"></path>
                    <path d="M14.9973917,25 L19.0026083,25 C20.1041422,25 21,24.1054196 21,23.0018986 L21,19.9981014 C21,18.8867064 20.1057373,18 19.0026083,18 L14.9973917,18 C13.8958578,18 13,18.8945804 13,19.9981014 L13,23.0018986 C13,24.1132936 13.8942627,25 14.9973917,25 Z" id="Path" fill="#4230B1"></path>
                    <path d="M14.9973917,15 C13.340764,15 12,13.6540131 12,11.9941413 L12,3.00585866 C12,1.34714349 13.342197,7.28306304e-14 14.9973917,5.68434189e-14 L19.0026083,0 C20.659236,-1.24344979e-14 22,1.34598693 22,3.00585866 L22,11.9941413 C22,13.6528565 20.657803,15 19.0026083,15 L14.9973917,15 Z" id="Path" fill="#FFFFFF"></path>
                    <path d="M14.9973917,14 L19.0026083,14 C20.1041422,14 21,13.1019465 21,11.9941413 L21,3.00585866 C21,1.89706013 20.1057373,1 19.0026083,1 L14.9973917,1 C13.8958578,1 13,1.89805351 13,3.00585866 L13,11.9941413 C13,13.1029399 13.8942627,14 14.9973917,14 Z" id="Path" fill="#4230B1"></path>
                </g>
            </g>
        </g>
    </g>
</svg>