<svg width="62" height="29" viewBox="0 0 62 29" fill="none" xmlns="http://www.w3.org/2000/svg">
<rect x="20.1451" y="10.7903" width="21.4516" height="6.48387" fill="white" stroke="white"/>
<rect x="18.2097" y="0.5" width="28" height="6.48387" rx="1.5" transform="rotate(90 18.2097 0.5)" fill="#6759C0" stroke="white"/>
<rect x="9.79028" y="5.17743" width="18.6452" height="4.6129" rx="1.5" transform="rotate(90 9.79028 5.17743)" fill="#6759C0" stroke="white"/>
<mask id="path-4-inside-1" fill="white">
<path fill-rule="evenodd" clip-rule="evenodd" d="M3.74194 9.39294C1.63712 9.73613 0 12.3332 0 14.5C0 16.6669 1.63712 19.2639 3.74194 19.6071V9.39294Z"/>
</mask>
<path fill-rule="evenodd" clip-rule="evenodd" d="M3.74194 9.39294C1.63712 9.73613 0 12.3332 0 14.5C0 16.6669 1.63712 19.2639 3.74194 19.6071V9.39294Z" fill="#6759C0"/>
<path d="M3.74194 9.39294H4.74194V8.21669L3.58101 8.40598L3.74194 9.39294ZM3.74194 19.6071L3.58101 20.5941L4.74194 20.7834V19.6071H3.74194ZM1 14.5C1 13.6484 1.32991 12.6539 1.90158 11.8351C2.47771 11.0099 3.2033 10.494 3.90286 10.3799L3.58101 8.40598C2.17576 8.6351 1.03038 9.58926 0.261739 10.6901C-0.511353 11.7974 -1 13.1848 -1 14.5H1ZM3.90286 18.6201C3.2033 18.5061 2.47771 17.9901 1.90158 17.165C1.32991 16.3462 1 15.3516 1 14.5H-1C-1 15.8153 -0.511353 17.2026 0.261739 18.3099C1.03038 19.4108 2.17576 20.3649 3.58101 20.5941L3.90286 18.6201ZM4.74194 19.6071V9.39294H2.74194V19.6071H4.74194Z" fill="white" mask="url(#path-4-inside-1)"/>
<rect x="43.5322" y="28.5" width="28" height="6.48387" rx="1.5" transform="rotate(-90 43.5322 28.5)" fill="#6759C0" stroke="white"/>
<rect x="51.9517" y="23.8226" width="18.6452" height="4.6129" rx="1.5" transform="rotate(-90 51.9517 23.8226)" fill="#6759C0" stroke="white"/>
<mask id="path-8-inside-2" fill="white">
<path fill-rule="evenodd" clip-rule="evenodd" d="M58 19.6071C60.1048 19.2639 61.7419 16.6668 61.7419 14.5C61.7419 12.3331 60.1048 9.73609 58 9.3929L58 19.6071Z"/>
</mask>
<path fill-rule="evenodd" clip-rule="evenodd" d="M58 19.6071C60.1048 19.2639 61.7419 16.6668 61.7419 14.5C61.7419 12.3331 60.1048 9.73609 58 9.3929L58 19.6071Z" fill="#6759C0"/>
<path d="M58 19.6071L57 19.6071L57 20.7833L58.1609 20.594L58 19.6071ZM58 9.3929L58.1609 8.40593L57 8.21664L57 9.3929L58 9.3929ZM60.7419 14.5C60.7419 15.3516 60.412 16.3461 59.8404 17.1649C59.2642 17.9901 58.5386 18.506 57.8391 18.6201L58.1609 20.594C59.5662 20.3649 60.7116 19.4107 61.4802 18.3099C62.2533 17.2026 62.7419 15.8152 62.7419 14.5L60.7419 14.5ZM57.8391 10.3799C58.5386 10.4939 59.2642 11.0099 59.8404 11.835C60.412 12.6538 60.7419 13.6484 60.7419 14.5L62.7419 14.5C62.7419 13.1847 62.2533 11.7974 61.4802 10.6901C60.7116 9.58921 59.5662 8.63506 58.1609 8.40593L57.8391 10.3799ZM57 9.3929L57 19.6071L59 19.6071L59 9.3929L57 9.3929Z" fill="white" mask="url(#path-8-inside-2)"/>
</svg>
